<?xml version="1.0" standalone="no"?>
<!DOCTYPE svg PUBLIC "-//W3C//DTD SVG 20010904//EN"
 "http://www.w3.org/TR/2001/REC-SVG-20010904/DTD/svg10.dtd">
<svg version="1.0" xmlns="http://www.w3.org/2000/svg"
 width="771.000000pt" height="771.000000pt" viewBox="0 0 771.000000 771.000000"
 preserveAspectRatio="xMidYMid meet">
<metadata>
Created by potrace 1.14, written by Peter Selinger 2001-2017
</metadata>
<g transform="translate(0.000000,771.000000) scale(0.100000,-0.100000)"
fill="#000000" stroke="none">
<path d="M3805 7630 c6 -10 -64 -32 -77 -24 -10 6 -10 5 -1 -7 13 -16 10 -18
-42 -20 -11 -1 -14 -3 -7 -6 6 -3 12 -9 12 -14 0 -6 -4 -7 -10 -4 -5 3 -10 1
-10 -4 0 -6 -5 -11 -11 -11 -5 0 -7 6 -3 13 3 6 -5 0 -20 -15 -26 -27 -43 -37
-31 -19 3 5 1 13 -5 16 -6 4 -9 3 -8 -2 2 -4 -5 -19 -15 -33 -9 -13 -17 -21
-17 -17 0 5 -16 -4 -35 -19 -19 -14 -35 -23 -35 -19 0 4 -11 0 -25 -9 -18 -12
-25 -13 -26 -4 0 7 -4 3 -9 -9 -9 -22 -20 -27 -47 -24 -7 1 -13 -5 -13 -13 0
-8 -5 -18 -12 -22 -7 -5 -9 -2 -4 7 4 8 1 6 -7 -3 -16 -21 -31 -24 -22 -5 4 6
0 4 -9 -7 -8 -10 -20 -15 -27 -10 -8 4 -10 3 -5 -4 4 -7 2 -12 -4 -12 -6 0 -8
-4 -5 -10 3 -5 0 -7 -8 -4 -8 3 -18 1 -22 -5 -9 -15 -28 -14 -19 2 4 7 3 9 -2
4 -5 -5 -9 -14 -9 -20 0 -7 -8 -12 -18 -12 -11 0 -27 -10 -37 -23 -17 -21 -37
-32 -26 -14 3 5 -1 9 -8 9 -8 0 -12 -6 -9 -13 2 -6 -1 -15 -8 -20 -8 -5 -10
-3 -5 7 4 8 1 6 -7 -3 -8 -10 -17 -15 -20 -11 -4 3 -7 1 -7 -5 0 -15 -57 -45
-70 -37 -6 3 -10 -1 -10 -10 0 -9 -4 -13 -10 -10 -5 3 -10 1 -10 -6 0 -8 -4
-8 -15 1 -13 11 -14 10 -10 -3 4 -8 1 -18 -6 -23 -8 -5 -10 -3 -4 5 6 10 3 11
-14 2 -11 -7 -21 -14 -21 -17 0 -3 6 -2 13 2 9 5 9 3 -1 -7 -11 -12 -14 -12
-22 1 -8 13 -10 13 -10 -2 0 -9 -5 -20 -12 -24 -7 -5 -9 -2 -4 7 4 8 0 5 -9
-6 -14 -17 -17 -18 -26 -5 -9 13 -10 13 -6 -2 4 -11 -4 -21 -26 -31 -17 -9
-35 -13 -39 -11 -4 3 -8 -2 -8 -10 0 -9 -7 -16 -15 -16 -8 0 -15 -4 -15 -10 0
-5 -7 -7 -15 -4 -8 4 -15 1 -15 -6 0 -7 -7 -10 -15 -6 -8 3 -14 2 -14 -2 3
-19 -2 -23 -16 -12 -13 11 -14 10 -8 -5 5 -14 3 -17 -10 -12 -11 4 -17 1 -17
-8 0 -7 -10 -17 -22 -21 -13 -3 -31 -13 -40 -21 -10 -9 -24 -13 -32 -10 -10 4
-13 1 -9 -9 3 -8 2 -14 -3 -13 -22 4 -35 -2 -28 -13 5 -8 2 -9 -10 -5 -10 4
-19 1 -23 -8 -4 -13 -8 -13 -21 -3 -9 8 -13 8 -9 2 4 -7 -1 -18 -10 -25 -14
-12 -16 -12 -8 1 5 8 -4 3 -20 -12 -15 -16 -34 -28 -41 -28 -8 0 -14 -6 -14
-12 0 -9 -4 -8 -10 2 -9 13 -14 8 -12 -11 1 -4 -13 -13 -31 -20 -18 -7 -41
-21 -51 -31 -11 -10 -25 -18 -32 -18 -7 0 -14 -3 -16 -8 -3 -6 -109 -69 -288
-170 -25 -13 -76 -44 -115 -67 -38 -23 -90 -52 -115 -66 -25 -13 -47 -26 -50
-30 -3 -3 -21 -13 -40 -22 -19 -10 -55 -30 -80 -45 -25 -15 -77 -45 -115 -66
-39 -22 -71 -44 -73 -48 -2 -4 -8 -8 -13 -8 -8 0 -150 -80 -234 -131 -16 -10
-39 -23 -50 -29 -11 -6 -38 -21 -60 -33 -22 -13 -62 -36 -88 -51 -27 -15 -70
-41 -95 -56 -26 -16 -67 -39 -92 -52 -25 -13 -51 -29 -58 -35 -7 -7 -17 -13
-22 -13 -36 0 -35 27 -34 -1916 1 -1039 2 -1894 3 -1899 0 -6 22 -21 49 -34
26 -14 54 -30 62 -36 15 -12 115 -68 157 -89 13 -6 23 -14 23 -18 0 -5 6 -8
13 -8 6 0 40 -18 75 -40 34 -22 67 -40 72 -40 5 0 15 -6 22 -13 7 -7 24 -18
38 -24 14 -7 46 -25 72 -40 25 -15 93 -55 150 -87 57 -33 166 -96 243 -141 77
-45 160 -93 185 -107 25 -14 101 -58 170 -98 173 -101 189 -110 240 -138 25
-13 50 -28 55 -32 6 -4 71 -42 145 -85 74 -43 149 -86 165 -95 234 -135 349
-200 356 -200 5 0 9 -3 9 -7 0 -5 31 -24 68 -43 37 -19 69 -38 72 -41 6 -7
141 -85 197 -114 23 -12 48 -26 55 -32 7 -6 39 -25 71 -42 32 -18 79 -45 105
-61 26 -16 70 -41 97 -55 28 -15 58 -34 68 -43 9 -8 17 -11 17 -6 0 5 4 5 8
-1 7 -10 15 -15 91 -57 20 -11 60 -33 89 -50 40 -23 56 -27 66 -19 21 17 377
221 386 221 5 0 10 4 12 8 2 4 35 25 73 46 102 56 190 110 193 119 2 4 7 5 12
2 5 -3 15 0 22 7 8 7 27 20 43 29 17 9 118 67 225 129 107 62 242 140 300 173
58 33 119 68 135 78 17 10 41 24 55 32 14 7 68 38 120 69 52 30 172 99 265
153 94 54 203 118 243 142 41 24 75 43 78 43 2 0 33 18 69 40 36 22 68 40 71
40 3 0 26 14 51 30 24 17 46 30 48 30 2 0 86 48 187 106 101 59 199 116 218
126 19 11 119 69 222 129 103 60 191 109 196 109 5 0 17 10 28 23 20 22 20 39
20 1916 l-1 1894 -50 28 c-27 16 -59 33 -70 39 -11 5 -27 14 -35 20 -13 9 -51
30 -157 91 -18 11 -48 27 -65 38 -90 52 -357 206 -388 224 -19 11 -55 31 -80
45 -24 14 -84 49 -133 78 -49 30 -91 54 -93 54 -2 0 -52 29 -111 64 -60 35
-135 78 -168 96 -33 18 -62 36 -65 39 -3 3 -34 21 -70 40 -36 19 -67 37 -70
40 -3 3 -19 13 -35 22 -17 8 -138 78 -270 154 -132 76 -260 150 -285 164 -25
14 -47 27 -50 30 -3 3 -23 16 -45 28 -57 30 -98 53 -200 113 -49 29 -110 64
-135 78 -25 14 -76 44 -115 67 -38 22 -77 44 -85 48 -8 4 -28 16 -45 26 -30
18 -119 70 -203 118 -23 13 -92 53 -153 88 -60 35 -118 63 -129 62 -10 -1 -17
-4 -15 -7z m-1529 -972 c5 -7 2 -8 -7 -3 -8 4 -5 -1 6 -12 11 -11 21 -16 23
-12 3 8 13 2 47 -29 8 -7 21 -10 27 -6 9 5 8 2 -1 -9 -12 -15 -12 -17 3 -11 9
4 16 1 16 -6 0 -10 3 -10 15 0 12 10 14 8 10 -9 -3 -19 -1 -20 17 -10 11 6 18
7 14 1 -8 -14 21 -35 35 -26 9 5 10 2 6 -10 -4 -9 -3 -15 1 -13 13 8 54 -12
47 -23 -4 -6 -3 -9 2 -8 13 4 73 -23 73 -33 0 -5 9 -9 20 -9 12 0 20 -7 20
-17 0 -9 3 -13 6 -10 10 10 45 -13 39 -24 -4 -5 -3 -9 2 -8 20 5 64 -14 59
-26 -3 -8 2 -11 15 -8 10 3 19 1 19 -3 0 -5 15 -15 33 -23 17 -8 35 -19 39
-25 4 -6 13 -11 20 -11 7 0 13 -5 13 -12 0 -6 4 -15 9 -20 5 -5 6 -3 2 5 -4 6
-2 12 3 12 6 0 11 -4 11 -10 0 -6 3 -9 8 -9 19 3 25 -2 12 -11 -12 -8 -9 -10
10 -8 16 2 24 -2 22 -10 -1 -7 3 -12 10 -11 27 3 39 -1 32 -13 -4 -6 -3 -8 4
-4 6 3 17 -1 25 -9 9 -8 21 -15 27 -15 7 0 9 -7 6 -16 -5 -14 -4 -15 9 -4 14
12 19 7 16 -13 -1 -5 3 -6 9 -2 13 8 52 -14 45 -25 -3 -6 0 -7 7 -5 8 3 22 -2
33 -11 11 -8 14 -12 6 -8 -9 5 -12 3 -7 -5 4 -6 12 -9 17 -5 6 3 17 -2 25 -12
9 -11 13 -13 9 -7 -4 9 -1 11 10 7 9 -4 14 -13 11 -20 -3 -9 0 -11 11 -7 10 4
14 2 10 -4 -4 -6 4 -8 21 -6 21 4 24 2 12 -6 -13 -9 -13 -11 3 -11 9 0 17 -5
17 -12 0 -6 3 -8 6 -5 11 10 64 -26 64 -43 0 -13 1 -13 10 0 6 10 10 11 10 3
0 -7 3 -12 8 -11 10 2 72 -35 72 -44 0 -5 9 -8 19 -8 11 0 26 -9 34 -20 8 -11
17 -17 20 -13 4 3 7 -2 7 -13 0 -16 2 -17 10 -4 9 14 14 7 11 -13 -1 -5 3 -6
9 -2 12 8 53 -19 43 -29 -4 -4 0 -4 10 0 10 3 17 1 17 -5 0 -6 9 -11 20 -11
11 0 20 -4 20 -8 0 -5 11 -14 25 -20 14 -6 25 -15 24 -19 -3 -20 2 -27 12 -13
7 10 9 11 7 2 -2 -8 -8 -14 -13 -14 -6 0 -17 -4 -27 -9 -12 -6 -16 -5 -14 7 1
9 8 19 15 23 10 6 9 10 -4 14 -9 4 -14 3 -10 -2 3 -5 1 -11 -5 -13 -5 -1 -11
-14 -13 -27 -4 -25 -27 -43 -27 -21 0 6 4 9 8 6 5 -3 9 1 9 9 0 10 -4 12 -12
5 -7 -5 -16 -6 -20 -2 -5 4 -5 1 -1 -5 4 -7 3 -13 -3 -13 -5 0 -11 4 -13 8 -1
4 -11 0 -20 -9 -14 -15 -14 -18 -2 -23 8 -3 13 -2 10 2 -2 4 4 9 15 9 10 1 19
-3 19 -9 0 -6 -3 -8 -7 -5 -3 4 -12 2 -20 -4 -7 -6 -13 -8 -13 -5 0 4 -6 1
-14 -6 -8 -7 -11 -17 -8 -23 3 -5 -2 -4 -11 4 -18 14 -23 26 -8 16 5 -3 13 0
17 6 4 8 3 9 -4 5 -7 -4 -12 -2 -12 3 0 6 -8 3 -18 -6 -10 -10 -14 -19 -10
-21 4 -2 8 -10 8 -19 0 -12 -2 -12 -16 1 -8 9 -21 16 -27 16 -8 0 -7 -3 2 -9
10 -6 10 -10 1 -16 -6 -4 -9 -13 -6 -21 4 -11 0 -11 -19 2 -14 9 -25 14 -25
10 0 -3 0 -9 0 -13 0 -5 4 -8 9 -8 5 0 12 -3 15 -7 3 -5 3 -6 -1 -3 -3 3 -13
-1 -21 -8 -13 -9 -14 -9 -8 1 4 6 3 12 -2 12 -5 0 -17 -15 -26 -32 -8 -18 -16
-26 -16 -17 0 9 3 19 7 23 11 10 12 37 2 30 -5 -3 -7 -9 -4 -14 10 -16 -15
-22 -32 -8 -15 12 -15 11 -2 -9 11 -19 11 -24 0 -35 -12 -11 -13 -10 -8 4 3
10 2 20 -4 23 -5 4 -8 1 -7 -7 2 -7 -3 -12 -10 -10 -9 2 -11 -2 -6 -10 14 -22
13 -37 -3 -31 -10 4 -11 8 -3 13 8 5 7 9 -4 13 -9 4 -15 3 -15 -1 3 -20 -2
-25 -12 -12 -8 11 -9 9 -3 -10 6 -23 5 -24 -11 -10 -15 12 -18 12 -26 -3 -5
-9 -16 -14 -23 -11 -8 3 -17 1 -21 -5 -3 -7 0 -8 9 -5 9 3 16 1 16 -5 0 -10
-14 -15 -33 -12 -4 1 -10 -6 -13 -14 -4 -8 -10 -15 -16 -15 -5 0 -6 5 -2 12 4
7 3 8 -5 4 -6 -4 -8 -12 -5 -18 5 -7 2 -9 -8 -5 -18 6 -42 -37 -31 -56 3 -7
-3 -4 -15 7 -23 20 -30 14 -36 -30 -2 -10 -9 -20 -17 -22 -8 -2 -10 0 -4 5 16
13 16 31 0 37 -9 3 -12 0 -9 -9 6 -15 -24 -35 -44 -28 -6 3 -9 10 -6 15 4 7 2
8 -4 4 -9 -5 -9 -12 0 -26 7 -10 16 -16 22 -13 5 3 6 1 2 -6 -6 -9 -11 -9 -22
0 -12 10 -17 9 -27 -1 -10 -10 -9 -11 2 -5 9 5 12 4 7 -3 -5 -8 -13 -9 -25 -2
-20 10 -31 4 -31 -17 0 -8 5 -11 10 -8 6 4 7 12 3 18 -4 7 0 6 10 -2 17 -13
14 -36 -4 -26 -5 4 -9 0 -10 -7 0 -10 -2 -10 -6 0 -2 6 -10 9 -15 6 -6 -4 -8
-2 -4 4 7 11 -43 7 -54 -5 -3 -3 5 -3 18 0 12 3 22 1 22 -4 0 -5 -4 -10 -10
-10 -11 -2 -25 -5 -37 -9 -5 -1 -12 -2 -16 -1 -5 1 -7 -4 -5 -10 2 -7 12 -13
22 -15 13 -2 16 2 11 14 -5 13 -3 14 6 5 26 -26 -14 -40 -43 -15 -12 9 -15 9
-15 -3 0 -8 4 -15 9 -15 4 0 8 -4 8 -9 0 -11 -26 -8 -37 4 -4 4 -2 5 4 1 9 -5
11 -2 6 9 -8 23 -22 -1 -15 -27 3 -13 0 -19 -9 -18 -47 7 -70 -2 -90 -32 -17
-27 -19 -28 -13 -8 6 22 5 23 -10 8 -9 -9 -13 -24 -10 -32 4 -9 1 -16 -6 -16
-7 0 -19 -8 -27 -17 -13 -16 -13 -16 -3 5 6 12 16 22 22 22 6 0 8 3 5 6 -4 4
-13 2 -20 -4 -8 -7 -18 -8 -22 -4 -5 4 -5 1 0 -7 6 -10 2 -12 -16 -7 -20 6
-21 5 -6 -4 9 -6 17 -16 17 -23 0 -7 -4 -6 -10 3 -5 8 -10 11 -10 6 0 -5 -7
-3 -15 4 -13 11 -14 10 -9 -4 3 -9 1 -22 -5 -30 -6 -7 -9 -16 -6 -19 3 -4 2
-5 -1 -2 -4 2 -16 0 -28 -6 -17 -9 -17 -7 4 11 20 18 21 21 5 15 -11 -4 -28
-7 -37 -7 -10 0 -18 -4 -18 -9 0 -6 5 -7 10 -4 6 3 10 1 10 -4 0 -11 -21 -15
-49 -11 -11 1 -10 -2 3 -15 21 -21 20 -25 -5 -20 -11 2 -31 -2 -43 -10 -13 -8
-25 -12 -29 -9 -3 3 -11 3 -17 -1 -8 -5 -7 -11 2 -23 12 -14 10 -14 -10 -3
-12 6 -22 8 -21 4 5 -19 -14 -41 -28 -36 -11 4 -14 2 -9 -5 5 -8 -1 -12 -18
-12 -14 0 -26 -4 -26 -10 0 -5 6 -7 14 -4 8 3 17 1 20 -4 3 -5 -8 -8 -25 -6
-29 4 -30 2 -18 -14 12 -15 12 -16 -2 -5 -9 7 -20 9 -24 5 -5 -4 -5 2 -1 12 6
16 4 17 -10 6 -13 -12 -17 -11 -24 0 -5 8 -13 11 -17 6 -4 -5 -2 -11 5 -13 15
-6 16 -33 1 -33 -5 0 -7 -5 -3 -11 4 -8 12 -3 20 12 8 15 13 18 13 9 1 -29
-13 -39 -164 -120 -158 -84 -206 -112 -201 -118 3 -2 11 0 18 5 7 6 45 27 83
48 39 21 102 55 141 76 56 30 73 36 83 26 6 -6 17 -12 24 -12 7 0 13 -10 15
-22 2 -13 -1 -23 -7 -23 -6 0 -8 6 -5 14 4 10 -1 14 -15 13 -17 -1 -18 -3 -7
-17 7 -8 12 -23 11 -32 -2 -10 2 -16 8 -15 6 1 13 -8 15 -20 2 -13 -1 -23 -7
-23 -6 0 -8 6 -5 14 4 10 -1 14 -15 13 -18 -1 -18 -3 -6 -17 10 -11 11 -20 3
-34 -6 -10 -7 -16 -2 -14 5 3 20 -5 33 -18 19 -18 21 -22 7 -20 -10 1 -22 9
-26 17 -8 12 -11 12 -22 0 -8 -9 -9 -11 -1 -7 18 10 25 -11 13 -36 -11 -22
-10 -22 4 -4 13 17 18 18 29 6 10 -10 9 -11 -2 -5 -9 5 -12 3 -9 -6 3 -8 -3
-32 -14 -54 -10 -22 -13 -33 -6 -24 13 16 51 23 42 7 -3 -5 -10 -5 -16 -2 -8
5 -9 1 -5 -10 4 -9 3 -15 -1 -12 -4 2 -12 -7 -19 -20 -6 -13 -7 -22 -2 -18 5
3 9 -2 9 -10 0 -9 5 -16 11 -16 5 0 7 -5 4 -10 -4 -6 -11 -8 -16 -5 -5 3 -6
-1 -3 -10 5 -12 10 -13 17 -6 6 6 15 11 19 11 4 0 -1 -9 -12 -20 -11 -11 -20
-25 -20 -31 0 -5 -5 -7 -12 -3 -7 4 -8 3 -4 -4 4 -6 14 -8 24 -5 14 5 15 3 5
-8 -21 -21 -15 -34 6 -15 19 17 19 17 17 -1 -2 -13 -11 -17 -30 -16 -14 1 -26
-2 -26 -7 0 -6 3 -9 8 -9 22 4 30 -4 27 -26 -1 -15 4 -29 14 -35 22 -13 5 -13
-19 0 -13 7 -21 7 -26 -2 -4 -7 -3 -8 4 -4 7 4 12 3 12 -3 0 -5 9 -13 20 -16
18 -6 18 -8 5 -21 -19 -19 -19 -28 -2 -21 8 3 14 0 14 -7 0 -6 -8 -12 -18 -12
-11 0 -16 7 -14 19 5 25 -5 48 -17 41 -6 -4 -5 -10 3 -15 10 -6 11 -11 3 -19
-12 -12 3 -60 19 -60 5 0 5 -5 2 -10 -4 -6 -12 -7 -18 -3 -7 4 -6 0 2 -10 15
-19 36 -23 25 -5 -4 7 -3 8 5 4 19 -12 1 -26 -27 -21 -15 3 -21 2 -14 -1 6 -3
10 -10 7 -15 -3 -5 -1 -17 5 -28 8 -16 6 -22 -7 -31 -14 -9 -14 -10 -2 -7 9 3
23 -3 32 -13 14 -17 14 -19 0 -24 -9 -4 -18 -4 -21 -1 -3 3 0 5 7 5 7 0 9 5 6
10 -11 18 -21 11 -21 -14 0 -16 5 -22 13 -19 8 3 13 0 11 -8 -2 -8 3 -13 10
-11 8 1 11 -2 7 -8 -5 -7 -11 -8 -19 -1 -8 7 -17 6 -26 -1 -12 -8 -12 -9 3 -4
11 3 17 0 17 -10 0 -9 -5 -12 -12 -8 -10 5 -10 4 -1 -6 10 -11 15 -11 30 0 15
12 16 12 6 0 -7 -8 -14 -23 -14 -34 -1 -16 -2 -17 -6 -4 -2 9 -10 19 -18 21
-11 5 -11 1 0 -20 12 -23 12 -28 -3 -40 -15 -12 -15 -12 -1 -7 10 3 20 0 24
-6 9 -14 -14 -42 -28 -33 -6 3 -7 1 -3 -6 4 -6 12 -9 17 -6 5 4 9 -3 9 -14 0
-11 6 -19 13 -17 6 1 8 1 3 -2 -4 -2 -2 -8 5 -13 10 -6 7 -8 -8 -6 -12 0 -19
6 -15 12 3 5 -2 4 -11 -4 -20 -16 -13 -33 11 -24 15 6 15 5 4 -10 -8 -9 -10
-22 -6 -28 4 -7 -1 -18 -12 -27 -16 -12 -16 -14 -2 -9 22 8 33 -9 12 -17 -10
-4 -13 -13 -9 -27 5 -16 4 -19 -5 -14 -9 5 -11 4 -6 -4 4 -6 12 -9 17 -6 5 4
9 2 9 -4 0 -5 -6 -12 -12 -14 -10 -4 -10 -6 -1 -6 6 -1 15 4 18 9 3 6 11 10
17 10 6 0 1 -8 -10 -19 -12 -10 -22 -23 -22 -29 0 -6 -6 -13 -12 -15 -7 -3 2
-4 20 -2 18 2 30 0 26 -6 -3 -5 -10 -6 -16 -3 -7 5 -9 2 -5 -8 3 -9 3 -19 -1
-23 -4 -4 -7 -12 -7 -18 -1 -7 -7 -11 -15 -9 -12 3 -13 1 -2 -9 15 -16 16 -43
0 -33 -7 4 -8 3 -4 -4 4 -6 13 -9 21 -5 11 4 13 1 9 -11 -3 -9 -11 -13 -18 -9
-8 4 -8 2 1 -7 6 -7 9 -19 6 -26 -3 -9 1 -14 12 -14 10 0 13 5 9 12 -5 7 -3 8
5 3 9 -5 10 -10 2 -18 -7 -7 -5 -15 7 -25 11 -9 7 -8 -10 2 l-28 16 12 -25 c6
-14 16 -25 21 -25 6 0 7 -3 4 -6 -4 -4 -14 -1 -23 7 -16 13 -16 12 -5 -9 7
-12 16 -20 22 -17 15 10 10 -2 -8 -16 -14 -12 -16 -12 -8 0 5 10 4 12 -3 7
-19 -12 -14 -26 11 -27 12 0 16 -3 10 -6 -7 -2 -15 -4 -19 -3 -4 1 -10 -4 -14
-10 -5 -8 -11 -8 -21 2 -8 7 -21 14 -29 16 -8 2 -18 9 -22 15 -4 6 -10 9 -13
5 -6 -6 28 -31 90 -66 11 -6 14 -12 7 -12 -7 0 -10 -4 -7 -10 3 -5 0 -7 -8 -4
-8 3 -17 -2 -21 -11 -3 -9 -10 -13 -16 -10 -5 3 -10 1 -10 -4 0 -6 -7 -11 -15
-11 -8 0 -15 -3 -15 -7 0 -5 -22 -19 -48 -32 -27 -12 -59 -32 -73 -42 l-24
-20 30 13 c17 7 32 16 35 19 9 12 160 89 159 81 -1 -4 0 -9 1 -12 7 -19 7 -39
-1 -34 -5 3 -7 9 -4 14 3 5 2 11 -3 14 -4 2 -8 -9 -7 -25 0 -16 5 -27 10 -25
6 2 12 -5 12 -15 1 -10 -4 -19 -12 -19 -8 0 -16 -4 -20 -9 -3 -6 4 -8 16 -6
17 3 20 2 12 -6 -6 -6 -9 -18 -5 -27 4 -11 1 -14 -12 -9 -10 4 -15 3 -11 -3 3
-5 8 -18 10 -27 2 -10 7 -28 11 -40 4 -15 2 -23 -5 -23 -8 0 -8 -4 1 -14 7 -8
16 -12 20 -9 4 2 5 -3 2 -12 -6 -14 -8 -14 -20 2 -13 16 -13 15 -3 -9 7 -15
15 -25 20 -23 4 3 6 -3 4 -12 -2 -10 -4 -21 -4 -25 -1 -5 -8 -8 -17 -8 -8 0
-12 -5 -9 -10 4 -7 14 -6 28 1 21 10 21 10 3 -5 -14 -12 -16 -16 -5 -16 8 0
10 -3 4 -8 -13 -9 -19 -46 -7 -38 6 3 9 -2 7 -11 -2 -10 -4 -21 -4 -25 -1 -5
-9 -8 -18 -8 -15 0 -16 -2 -3 -10 9 -6 20 -5 30 3 13 10 13 10 3 -4 -7 -9 -9
-20 -5 -24 4 -5 1 -5 -7 0 -11 6 -13 1 -9 -23 4 -27 2 -30 -14 -21 -17 9 -18
8 -7 -9 7 -11 20 -18 28 -15 9 2 5 -2 -8 -10 -15 -9 -20 -17 -12 -21 6 -4 11
-3 11 2 0 5 7 9 16 9 14 0 14 -2 -2 -14 -13 -10 -14 -13 -3 -13 8 0 10 -3 4
-8 -13 -9 -19 -46 -7 -38 6 3 9 -2 7 -11 -2 -10 -4 -21 -4 -25 -1 -5 -9 -8
-18 -8 -15 0 -16 -2 -3 -10 9 -6 20 -5 30 3 13 10 13 10 3 -4 -7 -9 -9 -20 -5
-24 4 -5 1 -5 -7 0 -11 6 -13 1 -9 -23 4 -27 2 -30 -14 -21 -17 9 -18 8 -7 -9
7 -11 19 -18 28 -15 10 3 12 2 5 -4 -6 -4 -10 -38 -9 -75 0 -61 -1 -66 -18
-57 -16 9 -17 8 -6 -9 7 -11 20 -18 28 -15 9 2 5 -2 -9 -10 -14 -9 -29 -13
-35 -10 -5 4 -6 2 -2 -2 10 -11 37 -15 37 -6 0 4 7 8 16 8 14 0 14 -2 -2 -14
-10 -7 -21 -13 -24 -13 -4 0 -7 -7 -7 -15 0 -16 12 -20 20 -7 2 4 2 1 1 -6 -2
-6 2 -12 9 -12 9 0 9 -2 1 -8 -12 -7 -16 -65 -4 -57 3 2 7 -2 7 -10 0 -8 -4
-15 -8 -15 -4 0 -6 -11 -5 -25 3 -21 1 -23 -16 -14 -17 9 -18 8 -7 -9 7 -11
20 -18 28 -15 9 2 5 -2 -9 -10 -14 -9 -29 -13 -35 -10 -5 4 -6 2 -2 -2 10 -11
37 -15 37 -6 0 4 7 8 16 8 14 0 14 -2 -2 -14 -10 -7 -21 -13 -24 -13 -4 0 -7
-7 -7 -15 0 -16 12 -20 20 -7 2 4 2 1 1 -5 -2 -7 2 -13 9 -13 8 0 8 -3 -2 -9
-8 -5 -11 -16 -8 -25 3 -8 1 -18 -5 -22 -7 -5 -8 -2 -3 7 5 8 4 10 0 6 -12
-10 -16 -67 -5 -67 5 0 7 9 5 19 -2 11 2 22 9 24 7 3 13 -1 13 -9 0 -8 -4 -14
-8 -14 -4 0 -6 -11 -5 -25 3 -21 1 -23 -16 -14 -17 9 -18 8 -7 -9 7 -11 19
-18 28 -15 10 3 12 2 5 -4 -6 -4 -10 -38 -9 -75 0 -61 -1 -66 -18 -57 -16 9
-17 8 -6 -9 7 -11 20 -18 28 -15 9 2 5 -3 -9 -11 l-25 -16 28 4 c23 4 26 2 18
-8 -6 -7 -7 -17 -3 -22 4 -4 -1 -2 -11 5 -9 8 -20 11 -24 7 -3 -3 -2 -6 4 -6
6 0 13 -14 15 -30 6 -37 3 -37 -17 -2 -9 15 -13 18 -9 7 4 -11 7 -30 8 -42 1
-12 5 -25 9 -30 5 -4 7 -2 5 6 -2 7 4 16 12 18 13 4 13 3 0 -6 -13 -10 -13
-11 0 -11 8 -1 3 -7 -12 -16 -30 -16 -35 -23 -15 -20 6 0 13 -3 14 -8 1 -5 7
-13 15 -17 9 -6 9 -9 1 -9 -6 0 -15 5 -18 10 -4 6 -10 8 -15 5 -5 -3 -32 8
-60 25 -28 16 -55 30 -60 30 -6 0 -10 5 -10 10 0 6 -4 10 -10 10 -5 0 -33 14
-62 31 -29 18 -69 41 -88 52 -92 52 -249 142 -280 162 -45 28 -193 112 -245
139 -22 12 -42 23 -45 26 -3 3 -16 11 -30 19 -176 101 -480 277 -534 309 -37
23 -71 42 -75 42 -3 0 -24 12 -45 26 l-38 26 48 27 c27 15 110 63 184 106 74
43 148 85 163 94 16 9 36 21 45 26 10 6 84 48 165 95 81 47 160 92 175 101 15
9 43 25 62 36 19 11 110 63 203 116 92 54 171 97 175 97 4 0 18 9 32 20 20 16
21 19 5 14 -11 -4 -31 -15 -45 -24 -14 -9 -63 -38 -110 -63 -47 -26 -107 -61
-135 -77 -27 -17 -62 -35 -77 -41 -16 -6 -28 -15 -28 -20 0 -5 -4 -9 -9 -9 -8
0 -42 -19 -134 -74 -18 -10 -52 -29 -77 -43 -25 -13 -58 -33 -75 -43 -16 -10
-41 -25 -55 -33 -97 -54 -169 -95 -215 -124 -11 -7 -56 -33 -100 -58 -44 -25
-100 -57 -125 -71 -57 -33 -100 -51 -83 -33 9 9 10 16 2 26 -9 9 -8 13 0 13 8
0 9 5 1 19 -7 14 -7 22 0 26 8 5 7 11 -1 21 -9 11 -9 14 0 14 8 0 9 5 1 19 -7
14 -7 22 0 26 8 5 7 11 -1 21 -9 11 -9 14 0 14 8 0 9 5 1 19 -7 14 -7 22 0 26
8 5 7 11 -1 21 -9 11 -9 14 0 14 8 0 9 5 1 19 -7 14 -7 22 0 26 8 5 7 11 -1
21 -9 11 -9 14 0 14 8 0 9 5 1 19 -7 14 -7 22 0 26 8 5 7 11 -1 21 -9 11 -9
14 0 14 8 0 9 5 1 19 -7 14 -7 22 0 26 8 5 7 11 -1 21 -9 11 -9 14 0 14 8 0 9
5 1 19 -7 14 -7 22 0 26 8 5 8 11 0 20 -8 9 -8 15 0 20 6 4 7 12 1 23 -5 9 -5
26 0 39 5 13 4 25 -1 28 -5 3 -5 18 -1 33 9 33 8 43 -3 60 -4 7 -4 18 1 25 10
13 10 54 0 63 -3 3 -2 17 3 30 5 13 6 26 0 29 -5 3 -5 18 -1 33 9 33 8 43 -3
60 -4 7 -4 18 1 25 10 13 10 54 0 63 -3 3 -2 17 3 30 5 13 6 26 0 29 -5 3 -5
18 -1 33 9 33 8 43 -3 60 -4 7 -4 18 1 25 10 13 10 54 0 63 -3 3 -2 17 3 30 5
13 6 26 0 29 -5 3 -5 18 -1 33 9 33 8 43 -3 60 -4 7 -4 18 1 25 10 13 10 54 0
63 -3 3 -2 17 3 30 5 13 6 26 0 29 -5 3 -5 18 -1 33 9 33 8 43 -2 60 -5 6 -5
17 -1 24 9 15 10 60 1 74 -3 5 -2 16 3 24 5 8 5 21 -1 31 -6 12 -5 20 1 24 8
5 7 11 -1 21 -9 11 -9 14 0 14 8 0 9 5 1 19 -7 14 -7 22 0 26 8 5 7 11 -1 21
-9 11 -9 14 0 14 8 0 9 5 1 19 -7 14 -7 22 0 26 8 5 7 11 -1 21 -9 11 -9 14 0
14 8 0 9 5 1 19 -7 14 -7 22 0 26 8 5 7 11 -1 21 -9 11 -9 14 0 14 8 0 9 5 1
19 -7 14 -7 22 0 26 8 5 7 11 -1 21 -9 11 -9 14 0 14 8 0 9 5 1 19 -7 14 -7
22 0 26 8 5 7 11 -1 21 -9 11 -9 14 0 14 8 0 9 5 1 19 -7 14 -7 22 0 26 8 5 7
11 -1 21 -9 11 -9 14 0 14 8 0 9 5 1 19 -7 14 -7 22 0 26 8 5 8 11 0 20 -8 9
-8 15 0 20 6 4 7 12 1 23 -5 9 -5 26 0 39 5 13 4 25 -1 28 -5 3 -5 18 -1 33 9
33 8 43 -3 60 -4 7 -4 18 1 25 10 13 10 54 0 63 -3 3 -2 17 3 30 5 13 6 26 0
29 -5 3 -5 18 0 35 11 38 11 42 -2 58 -7 7 -7 17 -1 25 10 13 10 54 0 63 -3 3
-2 17 3 30 5 13 6 26 0 29 -5 3 -5 18 0 35 11 38 11 42 -2 58 -7 7 -7 17 -1
25 10 13 10 54 0 63 -3 3 -2 17 3 30 5 13 6 26 0 29 -5 3 -5 18 0 35 11 38 11
42 -2 58 -7 7 -7 17 -1 25 10 13 10 54 0 63 -3 3 -2 17 3 30 5 13 6 26 0 29
-5 3 -5 19 1 37 5 18 5 34 0 37 -5 4 -5 16 0 29 9 23 9 23 36 4 16 -10 53 -32
83 -48 30 -15 66 -35 80 -44 69 -45 100 -61 100 -51 0 6 -4 11 -8 11 -8 0
-162 88 -187 107 -6 5 -17 9 -24 11 -7 1 -29 13 -48 26 l-34 24 78 45 c43 25
92 54 110 64 46 27 255 147 433 249 85 49 157 92 158 96 2 5 8 8 13 8 4 0 43
20 85 45 41 25 77 45 79 45 2 0 32 17 66 38 35 22 91 54 124 73 33 19 127 72
208 119 81 47 155 90 165 95 10 6 39 23 65 38 26 15 51 26 56 23 5 -3 11 1 15
9 7 18 12 19 22 3z m1574 -980 c0 -6 3 -8 7 -5 3 4 12 -1 20 -11 9 -10 11 -11
7 -2 -7 13 -6 13 12 1 10 -8 32 -26 48 -40 16 -15 26 -20 21 -13 -6 11 -3 12
14 3 11 -7 21 -14 21 -17 0 -3 -5 -2 -12 2 -7 4 -8 3 -4 -4 4 -7 17 -12 30
-12 12 0 31 -8 42 -18 10 -10 27 -21 38 -25 12 -5 16 -13 12 -23 -6 -15 -4
-15 10 -3 14 11 18 11 29 -4 7 -9 19 -17 26 -17 8 0 26 -11 41 -25 15 -14 34
-25 41 -25 8 0 22 -10 31 -22 9 -13 14 -17 11 -10 -10 20 4 14 32 -15 15 -16
23 -21 19 -13 -4 8 -1 7 7 -3 9 -10 18 -18 21 -18 17 2 24 -1 44 -19 12 -12
22 -18 22 -14 0 3 8 -2 18 -13 9 -10 13 -12 7 -3 -9 13 -8 13 9 0 19 -15 49
-33 76 -47 8 -4 23 -16 33 -28 10 -11 16 -13 12 -5 -4 8 1 6 9 -4 9 -11 19
-17 22 -13 9 9 36 -21 30 -32 -3 -5 3 -7 13 -4 21 5 74 -24 66 -37 -3 -5 4 -6
15 -3 12 3 20 0 20 -6 0 -7 -4 -9 -10 -6 -6 4 -7 -1 -3 -11 4 -11 8 -13 11 -6
2 7 10 12 18 12 7 0 11 -6 8 -14 -4 -11 0 -13 15 -9 12 3 21 1 21 -6 0 -6 7
-11 16 -11 10 0 14 -6 11 -14 -4 -10 0 -12 14 -9 11 3 19 0 19 -8 0 -7 3 -10
6 -6 7 6 64 -19 64 -29 0 -3 -4 -2 -10 1 -24 15 -7 -4 18 -21 26 -17 27 -17
12 1 -14 17 -14 18 8 6 12 -6 22 -16 22 -21 0 -6 9 -10 20 -10 11 0 20 -7 20
-16 0 -8 4 -13 9 -9 5 3 15 0 23 -7 7 -7 20 -14 28 -16 8 -2 26 -15 40 -30 14
-15 21 -22 16 -15 -5 8 -6 16 -2 20 3 3 6 2 6 -4 0 -6 14 -16 30 -23 17 -7 30
-16 30 -21 0 -5 7 -9 15 -9 8 0 15 -4 15 -10 0 -5 7 -10 15 -10 8 0 15 -4 15
-10 0 -5 9 -10 21 -10 11 0 17 -4 14 -10 -3 -5 3 -10 15 -10 14 0 19 -4 14
-12 -5 -8 -2 -9 9 -5 19 7 32 -8 16 -19 -8 -5 -9 -3 -4 6 5 9 4 11 -4 6 -15
-10 -3 -29 15 -22 8 3 11 0 8 -9 -3 -8 -11 -13 -17 -11 -7 1 -9 1 -5 -1 5 -3
3 -14 -3 -25 -8 -15 -8 -19 0 -14 6 4 11 3 11 -3 0 -5 -5 -13 -10 -16 -6 -4
-7 -12 -3 -18 11 -17 10 -31 -2 -39 -6 -5 -6 -8 3 -8 6 0 12 -5 12 -11 0 -5
-4 -8 -9 -4 -5 3 -13 1 -16 -5 -4 -6 -1 -9 7 -8 7 2 12 -4 10 -14 -1 -9 3 -20
9 -24 8 -4 9 -3 5 4 -4 6 4 16 16 22 19 9 21 9 8 -2 -17 -14 -21 -49 -7 -59 5
-3 1 -9 -8 -12 -9 -4 -13 -3 -10 3 3 6 1 10 -4 10 -19 0 -5 -40 15 -43 5 -1 9
-12 10 -25 0 -12 -1 -20 -4 -18 -2 3 -10 -1 -17 -7 -10 -10 -9 -14 9 -24 11
-7 16 -12 9 -13 -7 0 -10 -12 -8 -30 2 -16 0 -32 -5 -35 -6 -3 -7 2 -4 12 5
14 4 15 -4 4 -6 -8 -8 -21 -4 -29 4 -11 1 -13 -8 -7 -9 6 -11 4 -5 -5 11 -18
13 -130 2 -152 -4 -11 -4 -18 2 -18 5 0 11 8 13 18 3 12 6 8 10 -11 3 -15 1
-30 -5 -34 -6 -4 -7 -1 -2 8 7 11 5 11 -11 -1 -10 -8 -21 -16 -24 -18 -2 -2 7
-1 22 2 16 2 31 -1 38 -9 9 -11 5 -13 -22 -10 -26 3 -29 2 -15 -6 12 -7 15
-15 9 -27 -5 -9 -8 -24 -7 -32 1 -8 -3 -22 -9 -30 -6 -8 -6 -12 -2 -8 5 4 15
3 23 -3 8 -8 13 -8 13 -1 0 6 -6 12 -12 15 -7 3 -4 5 7 4 13 -1 21 -8 21 -18
0 -10 -2 -16 -4 -14 -3 2 -13 0 -23 -6 -21 -11 -26 -29 -8 -29 5 0 7 6 3 13
-6 9 -3 8 8 -1 16 -13 22 -55 6 -46 -4 3 -6 10 -4 17 1 7 1 9 -1 4 -3 -4 -9
-5 -13 -2 -5 3 -12 0 -16 -6 -4 -8 -3 -9 4 -5 6 4 16 -4 23 -16 11 -20 10 -21
-2 -11 -12 10 -15 8 -15 -8 0 -11 6 -18 15 -16 10 1 16 -6 17 -19 1 -11 -5
-21 -12 -21 -10 0 -11 4 -2 14 6 7 8 16 4 20 -3 3 -6 1 -6 -6 0 -7 -4 -10 -9
-7 -5 4 -8 -2 -6 -11 1 -10 -3 -24 -9 -32 -9 -12 -8 -12 11 0 20 12 25 11 40
-6 16 -17 16 -17 1 -6 -14 10 -21 10 -40 -3 -12 -9 -17 -16 -10 -16 7 0 10 -4
7 -10 -3 -5 -1 -10 5 -10 6 0 10 6 8 14 -2 8 2 14 7 13 6 -1 9 -6 7 -11 -2 -5
3 -13 10 -17 10 -7 10 -9 -1 -9 -11 0 -11 -3 -1 -15 7 -9 10 -18 6 -22 -3 -3
-6 -1 -6 4 0 6 -8 10 -17 9 -14 -2 -18 -13 -18 -49 0 -25 1 -44 4 -42 5 6 30
-27 31 -39 0 -6 -6 -2 -13 8 -13 17 -14 18 -20 2 -4 -9 -3 -15 2 -12 5 3 12
-1 15 -10 3 -8 11 -12 17 -8 8 4 9 3 5 -4 -5 -8 -13 -9 -25 -3 -13 7 -18 6
-18 -4 0 -8 4 -12 8 -10 6 4 21 -19 23 -37 1 -3 4 -9 8 -13 11 -11 -3 -35 -21
-35 -12 -1 -10 -6 9 -22 21 -18 22 -20 5 -14 -16 5 -21 2 -21 -14 0 -11 4 -20
9 -20 5 0 -1 -9 -14 -21 -13 -11 -19 -18 -13 -15 6 3 18 -4 27 -15 15 -17 15
-19 1 -19 -8 0 -13 -4 -9 -10 3 -5 11 -8 18 -6 7 1 9 1 4 -1 -4 -3 -4 -9 -1
-15 4 -6 -1 -6 -14 1 -16 9 -20 8 -18 -4 1 -8 8 -21 16 -28 7 -6 10 -7 7 -1
-3 6 1 11 10 11 12 0 11 -4 -6 -19 -20 -15 -21 -19 -7 -24 9 -3 16 -10 16 -15
0 -6 -7 -6 -18 0 -15 8 -18 6 -18 -13 0 -12 6 -23 13 -23 6 0 10 4 7 9 -3 4
-1 8 4 8 15 0 11 -48 -4 -54 -16 -6 -19 10 -4 17 6 3 5 4 -2 3 -22 -4 -14 -31
9 -31 12 0 25 -4 30 -8 4 -5 4 -8 -2 -7 -24 5 -46 -1 -40 -10 4 -6 1 -18 -7
-27 -9 -12 -9 -15 0 -9 8 5 12 0 12 -14 0 -13 -4 -19 -11 -14 -8 5 -8 1 0 -13
6 -11 7 -23 3 -27 -3 -4 1 -4 10 -1 9 4 19 2 23 -4 4 -7 0 -8 -11 -4 -12 4
-15 3 -10 -5 5 -8 1 -10 -11 -5 -16 6 -17 5 -3 -12 14 -17 13 -17 -15 1 -16
10 -26 14 -22 7 4 -6 3 -14 -3 -18 -5 -3 -10 -1 -10 6 0 7 -3 9 -6 6 -4 -4 -2
-12 4 -20 8 -10 6 -13 -9 -14 -11 -1 -17 2 -14 8 4 5 2 9 -3 9 -6 0 -13 -7
-16 -16 -3 -9 -11 -12 -18 -8 -10 5 -10 4 0 -7 11 -12 14 -12 23 1 9 13 10 13
6 0 -2 -8 -17 -16 -33 -18 -55 -4 -63 -6 -58 -14 3 -4 0 -8 -5 -8 -6 0 -11 -5
-11 -11 0 -8 4 -8 14 0 8 7 27 14 43 17 26 4 26 3 8 -8 -11 -7 -27 -12 -35
-13 -8 0 -14 -6 -12 -14 3 -12 1 -12 -13 -1 -21 17 -48 22 -38 7 4 -7 0 -8
-11 -4 -10 4 -15 3 -11 -3 7 -11 -29 -32 -40 -22 -5 4 -5 -2 -1 -12 5 -15 4
-17 -7 -7 -12 9 -14 6 -11 -15 1 -14 0 -23 -3 -20 -4 3 -17 -1 -31 -10 -22
-14 -25 -14 -36 2 -12 15 -13 15 -13 -2 0 -11 5 -22 11 -26 7 -5 4 -8 -6 -8
-10 0 -18 4 -18 8 0 5 -7 9 -15 9 -8 0 -15 -4 -15 -9 0 -5 -5 -6 -12 -2 -7 4
-8 3 -4 -4 4 -6 13 -9 20 -6 8 3 17 1 21 -5 4 -7 0 -8 -11 -4 -12 4 -15 3 -10
-5 5 -8 1 -10 -10 -5 -13 5 -15 3 -9 -8 5 -8 5 -11 -1 -6 -5 5 -9 13 -9 18 0
22 -19 7 -21 -17 -2 -14 -6 -29 -10 -33 -4 -3 -5 3 -2 14 4 15 0 21 -12 21
-11 0 -15 -6 -13 -17 3 -9 -1 -20 -8 -25 -9 -5 -11 -2 -6 9 3 9 2 19 -4 22 -5
4 -8 1 -7 -7 2 -7 -4 -12 -12 -10 -10 3 -9 -3 5 -19 11 -12 15 -19 8 -16 -6 4
-16 0 -22 -10 -6 -10 -11 -13 -11 -6 0 6 5 15 11 19 12 7 -6 24 -26 24 -5 0
-3 -5 5 -10 8 -5 12 -10 8 -10 -5 0 -10 1 -12 3 -2 1 -13 -6 -25 -17 -11 -10
-31 -19 -43 -20 -13 0 -23 -6 -23 -12 0 -6 -8 -18 -17 -28 -10 -10 -18 -13
-18 -7 0 5 -9 9 -19 8 -11 0 -17 -5 -15 -9 3 -5 10 -5 16 -2 7 4 8 2 4 -5 -4
-6 -18 -9 -31 -7 -25 5 -38 -2 -29 -16 3 -4 10 -5 17 -1 15 9 58 10 49 1 -4
-4 -18 -9 -31 -11 -13 -2 -32 -13 -42 -25 -14 -18 -18 -19 -23 -6 -4 10 -2 13
7 8 6 -4 8 -3 4 1 -24 26 -63 1 -54 -35 7 -28 0 -25 -17 8 -12 20 -15 22 -13
7 1 -11 6 -27 11 -35 7 -11 5 -11 -9 1 -16 16 -18 16 -36 -2 -10 -10 -27 -16
-38 -14 -11 2 -25 -2 -31 -10 -13 -16 5 -16 30 0 13 8 13 7 1 -9 -10 -11 -24
-16 -42 -14 -26 4 -26 3 -12 -18 13 -20 13 -22 -1 -20 -9 1 -19 6 -23 11 -4 4
-2 5 6 0 10 -6 12 -4 7 4 -6 8 -12 9 -20 2 -7 -6 -15 -8 -18 -5 -3 2 -8 -2
-12 -11 -4 -11 -2 -14 6 -9 7 4 8 3 4 -5 -6 -9 -11 -9 -21 -1 -9 8 -12 5 -10
-14 2 -19 -1 -23 -13 -19 -9 4 -13 2 -9 -4 8 -13 -19 -11 -30 2 -4 4 -3 6 2 2
6 -3 19 1 30 9 10 8 14 14 8 14 -7 0 -15 -5 -18 -10 -5 -8 -12 -7 -23 2 -9 7
-13 8 -9 2 3 -6 -5 -16 -18 -22 -14 -7 -25 -18 -25 -26 0 -8 -9 -18 -20 -21
-12 -4 -17 -11 -13 -18 3 -7 -3 -4 -14 6 -16 14 -20 14 -20 2 0 -8 4 -12 9 -9
4 3 8 0 8 -5 0 -17 -18 -13 -29 7 -10 16 -10 16 -11 -1 0 -10 -4 -16 -9 -13
-11 7 -33 -43 -25 -57 5 -8 2 -8 -7 1 -19 17 -29 15 -22 -5 5 -15 3 -14 -11 2
-15 19 -17 19 -27 2 -11 -19 -34 -13 -23 6 4 7 3 8 -1 4 -13 -12 -15 -36 -3
-44 7 -4 8 -1 3 7 -5 9 -4 11 4 6 9 -6 9 -11 0 -22 -13 -16 -23 -19 -14 -4 3
6 -3 10 -14 10 -27 0 -36 -17 -20 -38 11 -14 11 -15 0 -6 -13 12 -51 7 -51 -6
0 -4 -8 -10 -18 -12 -18 -5 -19 56 -19 1833 0 1012 4 1839 9 1839 4 0 8 -5 8
-12z m-275 -108 c3 -6 -1 -7 -9 -4 -18 7 -21 14 -7 14 6 0 13 -4 16 -10z
m-248 -138 c0 -10 -7 -19 -13 -19 -9 0 -10 5 -3 19 5 10 12 18 14 18 2 0 3 -8
2 -18z m-63 -48 c3 -8 2 -12 -4 -9 -6 3 -10 10 -10 16 0 14 7 11 14 -7z m-54
-33 c0 -6 -4 -12 -8 -15 -5 -3 -9 1 -9 9 0 8 4 15 9 15 4 0 8 -4 8 -9z m37 3
c-3 -3 -12 -4 -19 -1 -8 3 -5 6 6 6 11 1 17 -2 13 -5z m-477 -273 c0 -12 -20
-25 -27 -18 -7 7 6 27 18 27 5 0 9 -4 9 -9z m-240 -167 c0 -8 -19 -13 -24 -6
-3 5 1 9 9 9 8 0 15 -2 15 -3z m-60 -44 c0 -5 -2 -10 -4 -10 -3 0 -8 5 -11 10
-3 6 -1 10 4 10 6 0 11 -4 11 -10z m-25 -10 c3 -6 -1 -7 -9 -4 -18 7 -21 14
-7 14 6 0 13 -4 16 -10z m-34 -33 c-10 -9 -11 -8 -5 6 3 10 9 15 12 12 3 -3 0
-11 -7 -18z m-34 -9 c-3 -8 -6 -5 -6 6 -1 11 2 17 5 13 3 -3 4 -12 1 -19z
m-157 -128 c-8 -5 -11 -10 -7 -10 5 0 5 -5 1 -11 -4 -8 -9 -8 -18 1 -8 8 -7
13 4 20 8 5 20 10 25 10 6 0 3 -5 -5 -10z m3190 -6 c0 -2 -7 -4 -15 -4 -8 0
-15 4 -15 10 0 5 7 7 15 4 8 -4 15 -8 15 -10z m-3165 -14 c3 -5 1 -10 -4 -10
-6 0 -11 5 -11 10 0 6 2 10 4 10 3 0 8 -4 11 -10z m3148 -17 c-6 -16 -5 -17
13 -3 17 14 18 14 6 -2 -8 -9 -20 -14 -28 -11 -11 4 -12 9 -3 19 15 19 20 18
12 -3z m14 -46 c0 -8 -6 -14 -13 -14 -7 0 -10 6 -7 14 3 7 8 13 12 13 4 0 8
-6 8 -13z m-3162 -17 c3 -5 1 -10 -4 -10 -6 0 -11 5 -11 10 0 6 2 10 4 10 3 0
8 -4 11 -10z m-10 -78 c-3 -3 1 -12 8 -20 11 -13 9 -14 -10 -1 -27 16 -29 26
-8 26 8 0 13 -3 10 -5z m10 -132 c3 -5 1 -10 -4 -10 -6 0 -11 5 -11 10 0 6 2
10 4 10 3 0 8 -4 11 -10z m-5 -74 c0 -2 -7 -7 -16 -10 -8 -3 -12 -2 -9 4 6 10
25 14 25 6z m7 -30 c0 -8 -6 -12 -15 -9 -11 5 -11 7 0 14 7 5 13 9 14 9 0 0 1
-6 1 -14z m3152 -32 c-7 -9 -5 -16 8 -23 10 -6 13 -11 6 -11 -6 0 -10 -9 -8
-19 3 -14 -1 -18 -11 -14 -17 6 -18 19 -3 29 8 4 7 9 -2 14 -10 7 -10 11 0 24
10 12 10 16 2 16 -7 0 -9 5 -5 11 4 8 9 7 15 -2 4 -7 3 -19 -2 -25z m-3149
-38 c0 -3 -4 -8 -10 -11 -5 -3 -10 -1 -10 4 0 6 5 11 10 11 6 0 10 -2 10 -4z
m3144 -51 c3 -8 1 -15 -4 -15 -6 0 -10 7 -10 15 0 8 2 15 4 15 2 0 6 -7 10
-15z m22 -35 c0 -12 -4 -16 -9 -11 -5 5 -6 14 -3 20 10 15 12 14 12 -9z m0
-128 c1 -15 -1 -21 -3 -14 -4 9 -8 10 -18 2 -10 -9 -13 -7 -11 5 1 9 9 21 17
26 8 5 14 9 14 9 0 0 1 -12 1 -28z m-3186 -116 c0 -3 -4 -8 -10 -11 -5 -3 -10
-1 -10 4 0 6 5 11 10 11 6 0 10 -2 10 -4z m16 -30 c-1 -19 -4 -32 -7 -30 -5 3
-5 26 0 57 3 20 8 3 7 -27z m3160 -208 c15 -19 16 -20 2 -9 -11 8 -18 9 -18 3
0 -6 8 -16 18 -21 10 -6 12 -11 4 -11 -8 0 -10 -5 -6 -12 5 -10 4 -10 -7 0
-11 10 -23 72 -14 72 1 0 10 -10 21 -22z m-3161 -8 c3 -5 1 -10 -4 -10 -6 0
-11 5 -11 10 0 6 2 10 4 10 3 0 8 -4 11 -10z m5 -54 c0 -3 -4 -8 -10 -11 -5
-3 -10 -1 -10 4 0 6 5 11 10 11 6 0 10 -2 10 -4z m0 -90 c0 -2 -8 -10 -17 -17
-16 -13 -17 -12 -4 4 13 16 21 21 21 13z m-4 -46 c0 -12 -4 -16 -9 -11 -5 5
-6 14 -3 20 10 15 12 14 12 -9z m-10 -45 c-18 -14 -15 -20 9 -15 6 1 4 -4 -3
-12 -11 -11 -14 -10 -22 2 -14 21 -12 28 8 33 28 7 28 7 8 -8z m3182 -60 c-3
-3 -9 2 -12 12 -6 14 -5 15 5 6 7 -7 10 -15 7 -18z m-3173 -25 c-3 -5 -12 -10
-18 -10 -7 0 -6 4 3 10 19 12 23 12 15 0z m3165 6 c0 -11 -19 -15 -25 -6 -3 5
1 10 9 10 9 0 16 -2 16 -4z m-3170 -106 c-20 -13 -33 -13 -25 0 3 6 14 10 23
10 15 0 15 -2 2 -10z m7 -26 c-3 -3 -12 -4 -19 -1 -8 3 -5 6 6 6 11 1 17 -2
13 -5z m-3 -42 c3 -5 -1 -9 -9 -9 -8 0 -12 4 -9 9 3 4 7 8 9 8 2 0 6 -4 9 -8z
m3164 -109 c0 -10 2 -27 6 -38 5 -13 2 -12 -7 4 -8 14 -13 31 -10 38 7 18 12
16 11 -4z m12 -69 c0 -2 -7 -4 -15 -4 -8 0 -15 4 -15 10 0 5 7 7 15 4 8 -4 15
-8 15 -10z m-50 -68 c0 -3 -4 -8 -10 -11 -5 -3 -10 -1 -10 4 0 6 5 11 10 11 6
0 10 -2 10 -4z m-3136 -22 c3 -8 2 -12 -4 -9 -6 3 -10 10 -10 16 0 14 7 11 14
-7z m2937 -78 c-9 -11 -9 -15 1 -20 7 -3 2 -3 -11 0 -17 5 -21 3 -16 -6 5 -8
4 -11 -3 -6 -6 3 -15 -2 -21 -11 -6 -10 -11 -13 -11 -6 0 6 15 23 33 37 36 29
45 33 28 12z m-2937 -82 c3 -8 2 -12 -4 -9 -6 3 -10 10 -10 16 0 14 7 11 14
-7z m-19 -24 c-3 -5 -1 -11 5 -15 5 -3 10 -12 10 -18 0 -7 -6 -3 -12 8 -15 25
-19 47 -7 39 5 -3 7 -9 4 -14z m2580 -120 c3 -5 1 -10 -4 -10 -6 0 -11 5 -11
10 0 6 2 10 4 10 3 0 8 -4 11 -10z m-25 -15 c0 -13 -37 -23 -51 -13 -12 8 -11
9 2 5 9 -3 22 -1 30 4 16 10 19 11 19 4z m-218 -123 c3 -11 0 -19 -7 -19 -10
0 -12 13 -6 35 3 7 9 0 13 -16z m-90 -69 c-6 -2 -9 -10 -6 -15 4 -7 2 -8 -5
-4 -13 9 -5 26 12 25 9 0 8 -2 -1 -6z m-2212 -27 c0 -3 -4 -8 -10 -11 -5 -3
-10 -1 -10 4 0 6 5 11 10 11 6 0 10 -2 10 -4z m1985 -103 c5 -14 4 -15 -6 -6
-9 9 -16 10 -26 2 -9 -8 -13 -8 -13 -1 0 9 15 19 31 21 4 1 10 -7 14 -16z
m-115 -80 c0 -3 -6 -3 -12 0 -7 2 -19 -3 -26 -12 -10 -13 -12 -14 -10 -1 2 8
7 18 12 22 9 6 36 0 36 -9z m-110 -57 c0 -3 -4 -8 -10 -11 -5 -3 -10 -1 -10 4
0 6 5 11 10 11 6 0 10 -2 10 -4z m-1766 -72 c3 -8 2 -12 -4 -9 -6 3 -10 10
-10 16 0 14 7 11 14 -7z m6 -328 c0 -3 -4 -8 -10 -11 -5 -3 -10 -1 -10 4 0 6
5 11 10 11 6 0 10 -2 10 -4z m-6 -312 c3 -8 2 -12 -4 -9 -6 3 -10 10 -10 16 0
14 7 11 14 -7z m6 -208 c0 -3 -4 -8 -10 -11 -5 -3 -10 -1 -10 4 0 6 5 11 10
11 6 0 10 -2 10 -4z"/>
<path d="M965 5484 c33 -21 80 -48 105 -61 66 -35 130 -72 170 -98 19 -12 141
-82 270 -155 129 -74 247 -142 262 -152 30 -20 38 -22 38 -8 0 6 -5 10 -11 10
-5 0 -51 24 -102 54 -51 29 -112 65 -137 78 -25 14 -85 49 -135 78 -49 29
-108 62 -130 73 -22 11 -42 23 -45 26 -6 7 -138 84 -227 132 -32 17 -65 37
-74 45 -8 8 -22 14 -30 14 -8 0 13 -16 46 -36z"/>
<path d="M3115 5339 c-4 -6 -5 -12 -2 -15 2 -3 7 2 10 11 7 17 1 20 -8 4z"/>
<path d="M3065 5290 c-3 -6 1 -7 9 -4 18 7 21 14 7 14 -6 0 -13 -4 -16 -10z"/>
<path d="M2792 5131 c-11 -6 -9 -9 6 -13 15 -4 19 -2 15 8 -6 16 -4 16 -21 5z"/>
<path d="M1820 4995 c0 -2 17 -14 38 -25 53 -29 114 -64 220 -127 52 -30 95
-53 97 -51 3 2 -39 28 -91 58 -53 30 -102 61 -109 68 -8 7 -18 13 -22 14 -14
1 -38 11 -43 18 -6 7 -79 50 -86 50 -2 0 -4 -2 -4 -5z"/>
<path d="M2570 4990 c0 -5 5 -10 11 -10 5 0 7 5 4 10 -3 6 -8 10 -11 10 -2 0
-4 -4 -4 -10z"/>
<path d="M1783 4477 c-35 -17 -63 -34 -63 -38 0 -7 109 47 125 62 14 14 5 11
-62 -24z"/>
<path d="M1638 4402 c-37 -21 -68 -40 -68 -44 0 -9 103 43 108 55 2 4 10 7 18
7 8 0 14 5 14 10 0 6 -1 10 -2 9 -2 0 -33 -17 -70 -37z"/>
<path d="M2200 4390 c-6 -11 -8 -20 -6 -20 3 0 10 9 16 20 6 11 8 20 6 20 -3
0 -10 -9 -16 -20z"/>
<path d="M1530 4343 c-8 -3 -22 -11 -30 -18 -8 -6 -64 -38 -125 -70 -60 -32
-141 -76 -180 -97 -38 -21 -89 -48 -113 -59 -23 -12 -41 -24 -38 -26 3 -3 40
14 83 37 43 23 146 79 228 123 83 45 152 84 155 87 3 3 16 11 30 17 25 12 18
16 -10 6z"/>
<path d="M2190 4210 c0 -5 5 -10 11 -10 5 0 7 5 4 10 -3 6 -8 10 -11 10 -2 0
-4 -4 -4 -10z"/>
<path d="M2203 4095 c0 -8 4 -12 9 -9 5 3 6 10 3 15 -9 13 -12 11 -12 -6z"/>
<path d="M1004 4056 c-10 -7 -68 -39 -129 -71 -60 -31 -114 -62 -120 -68 -11
-11 -10 -11 50 19 22 10 42 21 45 24 3 3 43 25 90 49 95 49 95 49 89 56 -3 2
-14 -1 -25 -9z"/>
<path d="M689 3886 c-20 -14 -49 -28 -64 -32 -37 -9 -26 -18 115 -97 63 -35
138 -76 165 -92 89 -50 299 -167 355 -198 30 -16 61 -34 68 -40 7 -6 12 -6 12
0 0 5 -12 16 -27 24 -16 8 -31 18 -35 24 -4 5 -8 7 -8 3 0 -4 -48 20 -107 54
-60 33 -130 73 -158 88 -199 110 -342 190 -350 198 -6 5 -17 11 -25 14 -7 2
10 16 41 32 57 30 80 46 63 46 -5 0 -26 -11 -45 -24z"/>
<path d="M1350 3420 c0 -5 10 -12 22 -16 12 -3 45 -22 74 -40 29 -19 55 -34
58 -34 2 0 51 -26 108 -58 177 -101 198 -112 198 -104 0 4 -38 27 -85 52 -47
24 -85 49 -85 54 0 5 -3 7 -6 3 -3 -3 -23 4 -43 16 -20 12 -49 29 -66 37 -16
8 -48 26 -70 41 -55 36 -105 59 -105 49z"/>
<path d="M1848 3140 c18 -11 34 -20 36 -20 6 0 181 -102 191 -111 5 -5 16 -9
25 -9 11 1 10 4 -5 12 -11 6 -23 16 -27 22 -4 6 -8 8 -8 3 0 -4 -18 4 -40 18
-22 14 -41 25 -44 25 -2 0 -35 18 -72 40 -69 40 -118 58 -56 20z"/>
<path d="M1951 2756 c-7 -8 -23 -17 -36 -20 -14 -4 -25 -11 -25 -16 0 -6 12
-4 28 4 39 21 69 45 56 46 -6 0 -17 -6 -23 -14z"/>
<path d="M2176 2587 c3 -10 9 -15 12 -12 3 3 0 11 -7 18 -10 9 -11 8 -5 -6z"/>
<path d="M2193 2545 c0 -9 4 -14 9 -13 5 2 10 8 10 13 0 5 -5 11 -10 13 -5 1
-9 -4 -9 -13z"/>
<path d="M2188 2482 c11 -25 9 -47 -8 -68 -13 -16 -13 -17 0 -9 8 6 18 10 23
11 4 1 10 2 13 3 4 0 2 7 -5 14 -6 8 -9 23 -6 34 2 13 -3 24 -11 27 -11 4 -12
1 -6 -12z"/>
<path d="M2190 2369 c0 -5 5 -7 10 -4 6 3 10 8 10 11 0 2 -4 4 -10 4 -5 0 -10
-5 -10 -11z"/>
<path d="M2188 2242 c11 -25 9 -47 -8 -68 -13 -16 -13 -17 0 -9 8 6 18 10 23
11 4 1 10 2 13 3 4 0 2 7 -5 14 -6 8 -9 23 -6 34 2 13 -3 24 -11 27 -11 4 -12
1 -6 -12z"/>
<path d="M2190 2129 c0 -5 5 -7 10 -4 6 3 10 8 10 11 0 2 -4 4 -10 4 -5 0 -10
-5 -10 -11z"/>
<path d="M2180 1991 c0 -10 19 -25 25 -20 1 2 -3 10 -11 17 -8 7 -14 8 -14 3z"/>
<path d="M2190 1950 c0 -5 5 -10 10 -10 6 0 10 5 10 10 0 6 -4 10 -10 10 -5 0
-10 -4 -10 -10z"/>
<path d="M2193 1720 c-1 -11 2 -20 5 -20 4 0 8 9 9 20 1 11 -2 20 -5 20 -4 0
-8 -9 -9 -20z"/>
<path d="M2180 1351 c0 -10 19 -25 25 -20 1 2 -3 10 -11 17 -8 7 -14 8 -14 3z"/>
<path d="M2190 1310 c0 -5 5 -10 10 -10 6 0 10 5 10 10 0 6 -4 10 -10 10 -5 0
-10 -4 -10 -10z"/>
<path d="M4696 5157 c3 -10 9 -15 12 -12 3 3 0 11 -7 18 -10 9 -11 8 -5 -6z"/>
<path d="M5190 4856 c0 -2 7 -7 16 -10 8 -3 12 -2 9 4 -6 10 -25 14 -25 6z"/>
<path d="M5362 4514 c10 -10 20 -16 22 -13 3 3 -5 11 -17 18 -21 13 -21 12 -5
-5z"/>
<path d="M5356 4445 c-9 -26 -7 -32 5 -12 6 10 9 21 6 23 -2 3 -7 -2 -11 -11z"/>
<path d="M5380 4431 c-14 -26 -13 -38 2 -23 11 11 20 42 12 42 -2 0 -8 -9 -14
-19z"/>
<path d="M5368 4363 c7 -3 16 -2 19 1 4 3 -2 6 -13 5 -11 0 -14 -3 -6 -6z"/>
<path d="M5356 4313 c-6 -14 -5 -15 5 -6 7 7 10 15 7 18 -3 3 -9 -2 -12 -12z"/>
<path d="M5382 3691 c-11 -7 -11 -9 0 -14 9 -3 15 1 15 9 0 8 -1 14 -1 14 -1
0 -7 -4 -14 -9z"/>
<path d="M5376 3471 c-4 -5 -2 -12 3 -16 6 -3 8 -12 4 -20 -3 -8 0 -15 5 -15
16 0 24 18 12 25 -6 4 -8 10 -5 15 3 5 1 11 -4 14 -5 4 -12 2 -15 -3z"/>
<path d="M5036 2734 c-24 -24 -19 -30 7 -8 12 10 24 20 26 21 2 2 -1 3 -7 3
-6 0 -18 -7 -26 -16z"/>
<path d="M4577 2465 c3 -8 9 -12 14 -9 12 7 11 11 -5 17 -10 4 -13 1 -9 -8z"/>
<path d="M4156 2237 c3 -10 9 -15 12 -12 3 3 0 11 -7 18 -10 9 -11 8 -5 -6z"/>
<path d="M4015 2150 c-3 -5 -1 -10 4 -10 6 0 11 5 11 10 0 6 -2 10 -4 10 -3 0
-8 -4 -11 -10z"/>
<path d="M3853 2045 c0 -8 4 -12 9 -9 4 3 8 9 8 15 0 5 -4 9 -8 9 -5 0 -9 -7
-9 -15z"/>
<path d="M3526 7483 c-6 -14 -5 -15 5 -6 7 7 10 15 7 18 -3 3 -9 -2 -12 -12z"/>
<path d="M3486 7458 c3 -5 10 -6 15 -3 13 9 11 12 -6 12 -8 0 -12 -4 -9 -9z"/>
<path d="M3006 7188 c3 -5 10 -6 15 -3 13 9 11 12 -6 12 -8 0 -12 -4 -9 -9z"/>
<path d="M2236 6752 c-3 -5 1 -9 9 -9 8 0 12 4 9 9 -3 4 -7 8 -9 8 -2 0 -6 -4
-9 -8z"/>
</g>
</svg>
